<svg xmlns="http://www.w3.org/2000/svg" viewBox="0 0 32 32">
  <circle cx="16" cy="16" r="16" fill="#F8F3DE"/>
  <path d="M16 9c5 3.3 8 7.1 8 11.2 0 4.2-3.5 6.8-8 6.8s-8-2.6-8-6.8C8 16.1 11 12.3 16 9z" fill="#F4EFD9"/>
  <path d="M16 10v16M12.2 16c.3 3.9.9 7.1 1.8 9.6M19.8 16c-.3 3.9-.9 7.1-1.8 9.6" stroke="#D4C89C" stroke-width="1.1" stroke-linecap="round"/>
  <path d="M16 10c1.5-3.8 3.6-5.3 6-4.3M16 10c-1.5-3.8-3.6-5.3-6-4.3" stroke="#769E57" stroke-width="1.8" stroke-linecap="round" fill="none"/>
</svg>
